<svg xmlns="http://www.w3.org/2000/svg" xmlns:xlink="http://www.w3.org/1999/xlink" width="88" height="88" version="1.1" viewBox="0 0 88 88"><title>Icon / Deny</title><defs><path id="path-1" d="M20,10.0013182 C20,15.7153214 15.4147296,20 9.99934085,20 C4.28571429,20.0013181 0,15.7166397 0,10.0013182 C0,4.28599673 4.47696263,0 9.99934085,0 C15.7142857,0 20,4.58428005 20,10.0013182 Z"/><path id="path-3" d="M46,26 C46,14.5474389 39.2729662,0 23,0 C6.72703383,0 0,14.5474389 0,26 L46,26 Z"/><path id="path-5" d="M16,32 C7.16373728,32 0,24.8368794 0,16 C0,7.16312057 7.16373728,0 16,0 C24.8368794,0 32,7.16312057 32,16 C32,24.8368794 24.8368794,32 16,32 Z"/></defs><g id="Icon-/-Deny" fill="none" fill-rule="evenodd" stroke="none" stroke-width="1"><circle id="Oval" cx="44" cy="44" r="44" fill="#00C08F" fill-opacity=".2"/><g id="Group-4" transform="translate(15.000000, 17.000000)"><g id="Group-3" transform="translate(14.000000, 0.000000)"><mask id="mask-2" fill="#fff"><use xlink:href="#path-1"/></mask><use id="Clip-5" fill="#00C08F" xlink:href="#path-1"/><path id="Clip-5" fill="#00CEA1" d="M20,10.0013182 C20,15.7153214 15.4147296,20 9.99934085,20 C4.28571429,20.0013181 0,15.7166397 0,10.0013182 C0,4.28599673 4.47696263,0 9.99934085,0 C15.7142857,0 20,4.58428005 20,10.0013182 Z" mask="url(#mask-2)"/><circle id="Oval" cx="10" cy="22" r="14" fill="#00C08F" mask="url(#mask-2)"/><path id="Path" fill="#00C08F" fill-rule="nonzero" d="M9,-8 C17.9627487,-8 25,-0.81488148 25,8.00158189 C25,16.9631637 17.8145737,24 9,24 C6.790861,24 5,22.209139 5,20 C5,17.8578046 6.68396847,16.1089211 8.80035966,16.0048953 L9,16 C13.4332796,16 17,12.5070371 17,8.00158189 C17,3.65026974 13.6373835,0.134897476 9.25400318,0.00379097997 L9,0 C6.790861,0 5,-1.790861 5,-4 C5,-6.209139 6.790861,-8 9,-8 Z" mask="url(#mask-2)"/></g><g id="Group" transform="translate(0.000000, 23.000000)"><mask id="mask-4" fill="#fff"><use xlink:href="#path-3"/></mask><use id="Path" fill="#00C08F" xlink:href="#path-3"/><path id="Path" fill="#00CEA1" d="M46,26 C46,14.5474389 39.2729662,0 23,0 C6.72703383,0 0,14.5474389 0,26 L46,26 Z" mask="url(#mask-4)"/><circle id="Oval" cx="23" cy="39" r="28" fill="#00C08F" mask="url(#mask-4)"/><path id="Path" fill="#00C08F" fill-rule="nonzero" d="M19,-8 C37.0464584,-8 47.7838292,5.70232479 47.9967719,22.4903387 L48,23 L48,27 L19,27 C16.790861,27 15,25.209139 15,23 C15,20.8578046 16.6839685,19.1089211 18.8003597,19.0048953 L19,19 L39.744,19 L39.7228842,18.8309126 C38.2525191,8.05165985 30.9917222,0.178558836 19.3969531,0.00299606274 L19,0 C16.790861,0 15,-1.790861 15,-4 C15,-6.209139 16.790861,-8 19,-8 Z" mask="url(#mask-4)"/></g><g id="Group-2" transform="translate(26.000000, 22.000000)"><mask id="mask-6" fill="#fff"><use xlink:href="#path-5"/></mask><use id="Fill-83" fill="#FFF" xlink:href="#path-5"/><path id="Fill-89" fill="#FAFAFA" d="M14.5957447,49 C3.91543747,49 -4,40.4578008 -4,30 C-4,19.5416585 4.31969279,11 15,11 C25.6803072,11 34,19.5416585 34,30 C34,40.4578008 25.2760519,49 14.5957447,49 Z" mask="url(#mask-6)"/><path id="Path" fill="#FAFAFA" fill-rule="nonzero" d="M15,-8 C26.5983234,-8 36,1.4016766 36,13 C36,24.5983234 26.5983234,34 15,34 C12.790861,34 11,32.209139 11,30 C11,27.8578046 12.6839685,26.1089211 14.8003597,26.0048953 L15,26 C22.1800454,26 28,20.1800454 28,13 C28,5.92252668 22.3451421,0.166561987 15.3068705,0.00355023499 L15,0 C12.790861,0 11,-1.790861 11,-4 C11,-6.209139 12.790861,-8 15,-8 Z" mask="url(#mask-6)"/><path id="Rectangle" fill="#00C08F" fill-rule="nonzero" d="M10,14 L20,14 C21.1045695,14 22,14.8954305 22,16 C22,17.1045695 21.1045695,18 20,18 L10,18 C8.8954305,18 8,17.1045695 8,16 C8,14.8954305 8.8954305,14 10,14 Z"/><path id="Rectangle" fill="#00C08F" fill-rule="nonzero" d="M17,11 L17,21 C17,22.1045695 16.1045695,23 15,23 C13.8954305,23 13,22.1045695 13,21 L13,11 C13,9.8954305 13.8954305,9 15,9 C16.1045695,9 17,9.8954305 17,11 Z"/></g></g></g></svg>