<svg xmlns="http://www.w3.org/2000/svg" xmlns:xlink="http://www.w3.org/1999/xlink" width="160" height="160" viewBox="0 0 16 16"><view id="icon-loader-throbber-thin-outline" viewBox="0 0 16 16"/><svg xmlns="http://www.w3.org/2000/svg" width="16" height="16" fill="none" viewBox="0 0 16 16"><path fill="#303233" fill-rule="evenodd" d="M8 1a.5.5 0 01.5.5v1a.5.5 0 01-1 0v-1A.5.5 0 018 1z" clip-rule="evenodd"/><path fill="#303233" fill-rule="evenodd" d="M8 13a.5.5 0 01.5.5v1a.5.5 0 01-1 0v-1A.5.5 0 018 13z" clip-rule="evenodd" opacity=".6"/><path fill="#303233" fill-rule="evenodd" d="M1 8a.5.5 0 01.5-.5h1a.5.5 0 010 1h-1A.5.5 0 011 8z" clip-rule="evenodd" opacity=".8"/><path fill="#303233" fill-rule="evenodd" d="M15 8a.5.5 0 01-.5.5h-1a.5.5 0 010-1h1a.5.5 0 01.5.5z" clip-rule="evenodd" opacity=".4"/><path fill="#303233" fill-rule="evenodd" d="M12.95 3.05a.5.5 0 010 .707l-.707.707a.5.5 0 11-.707-.707l.707-.707a.5.5 0 01.707 0z" clip-rule="evenodd" opacity=".3"/><path fill="#303233" fill-rule="evenodd" d="M4.465 11.536a.5.5 0 010 .707l-.707.707a.5.5 0 11-.707-.707l.707-.707a.5.5 0 01.707 0z" clip-rule="evenodd" opacity=".7"/><path fill="#303233" fill-rule="evenodd" d="M4.465 4.464a.5.5 0 01-.707 0l-.707-.707a.5.5 0 01.707-.707l.707.707a.5.5 0 010 .707z" clip-rule="evenodd" opacity=".9"/><path fill="#303233" fill-rule="evenodd" d="M12.95 12.95a.5.5 0 01-.707 0l-.707-.707a.5.5 0 01.707-.707l.707.707a.5.5 0 010 .707z" clip-rule="evenodd" opacity=".5"/></svg></svg>