<svg xmlns="http://www.w3.org/2000/svg" xmlns:xlink="http://www.w3.org/1999/xlink" width="266" height="32" version="1.1" viewBox="0 0 266 32"><title>horizontal-sprite</title><desc>Created with Sketch.</desc><defs><linearGradient id="linearGradient-1" x1="100%" x2="0%" y1="0%" y2="100%"><stop offset="0%" stop-color="#CBCBCB"/><stop offset="100%" stop-color="#BABABA"/></linearGradient><rect id="path-2" width="24" height="24" x="0" y="0" rx="4"/><linearGradient id="linearGradient-4" x1="50%" x2="50%" y1="0%" y2="97.459%"><stop offset="0%" stop-color="#FFF"/><stop offset="100%" stop-color="#EFEFEF"/></linearGradient><path id="path-5" d="M12.0004023,16 C16.1380763,16 19.5452414,19.1064 19.9949711,23.1016 C20.0480697,23.5784 19.6739654,24 19.1904457,24 L4.80955432,24 C4.32603456,24 3.95193025,23.5784 4.00502893,23.1016 C4.45475862,19.1064 7.86192365,16 12.0004023,16 Z M12,6 C14.7608333,6 17,8.23916667 17,11 C17,13.7608333 14.7608333,16 12,16 C9.23916667,16 7,13.7608333 7,11 C7,8.23916667 9.23916667,6 12,6 Z"/><filter id="filter-6" width="143.8%" height="138.9%" x="-21.9%" y="-13.9%" filterUnits="objectBoundingBox"><feOffset dx="0" dy="1" in="SourceAlpha" result="shadowOffsetOuter1"/><feGaussianBlur in="shadowOffsetOuter1" result="shadowBlurOuter1" stdDeviation="1"/><feColorMatrix in="shadowBlurOuter1" type="matrix" values="0 0 0 0 0 0 0 0 0 0 0 0 0 0 0 0 0 0 0.15 0"/></filter></defs><g id="Page-1" fill="none" fill-rule="evenodd" stroke="none" stroke-width="1"><g id="horizontal-sprite" transform="translate(32.000000, 0.000000)"><rect id="Rectangle" width="234" height="32" x="0" y="0"/></g><g id="Group"><g id="Group-2"><g id="avatar_default" transform="translate(0.000000, 4.000000)"><mask id="mask-3" fill="#fff"><use xlink:href="#path-2"/></mask><use id="Rectangle-13" fill="url(#linearGradient-1)" opacity=".6" xlink:href="#path-2"/><g id="Combined-Shape" mask="url(#mask-3)"><use fill="#000" fill-opacity="1" filter="url(#filter-6)" xlink:href="#path-5"/><use fill="url(#linearGradient-4)" fill-rule="evenodd" xlink:href="#path-5"/></g></g><g id="list_default_4" transform="translate(35.000000, 0.000000)"><rect id="Rectangle" width="96" height="10" x="0" y="11" fill="#000" fill-opacity=".1" rx="2"/><rect id="Rectangle" width="182" height="32" x="0" y="0"/></g></g></g></g></svg>