<svg xmlns="http://www.w3.org/2000/svg" xmlns:xlink="http://www.w3.org/1999/xlink" width="48" height="48" version="1.1" viewBox="0 0 48 48"><title>48/icon/Successful</title><g id="48/icon/Successful" fill="none" fill-rule="evenodd" stroke="none" stroke-width="1"><rect id="Rectangle" width="48" height="48" x="0" y="0"/><polygon id="Star" stroke="#27A862" stroke-linejoin="round" stroke-width="2" points="24 38.4 19.341 41.387 16.8 36.471 11.272 36.728 11.529 31.2 6.613 28.659 9.6 24 6.613 19.341 11.529 16.8 11.272 11.272 16.8 11.529 19.341 6.613 24 9.6 28.659 6.613 31.2 11.529 36.728 11.272 36.471 16.8 41.387 19.341 38.4 24 41.387 28.659 36.471 31.2 36.728 36.728 31.2 36.471 28.659 41.387"/><polyline id="Path-14" stroke="#27A862" stroke-linecap="round" stroke-linejoin="round" stroke-width="2" points="19 24 23 28 30 20"/></g></svg>