<svg xmlns="http://www.w3.org/2000/svg" xmlns:xlink="http://www.w3.org/1999/xlink" width="64" height="64" version="1.1" viewBox="0 0 64 64"><title>64/icon/Successful6</title><g id="64/icon/Successful" fill="none" fill-rule="evenodd" stroke="none" stroke-width="1"><rect id="Rectangle" width="64" height="64" x="0" y="0"/><polygon id="Star-Copy" stroke="#27A862" stroke-linejoin="round" stroke-width="2" points="32 53.6 25.788 55.182 21.2 50.706 15.029 48.971 13.294 42.8 8.818 38.212 10.4 32 8.818 25.788 13.294 21.2 15.029 15.029 21.2 13.294 25.788 8.818 32 10.4 38.212 8.818 42.8 13.294 48.971 15.029 50.706 21.2 55.182 25.788 53.6 32 55.182 38.212 50.706 42.8 48.971 48.971 42.8 50.706 38.212 55.182"/><polygon id="Star" stroke="#27A862" stroke-linejoin="round" stroke-width="2" points="32 48.2 27.341 49.387 23.9 46.03 19.272 44.728 17.97 40.1 14.613 36.659 15.8 32 14.613 27.341 17.97 23.9 19.272 19.272 23.9 17.97 27.341 14.613 32 15.8 36.659 14.613 40.1 17.97 44.728 19.272 46.03 23.9 49.387 27.341 48.2 32 49.387 36.659 46.03 40.1 44.728 44.728 40.1 46.03 36.659 49.387"/><polyline id="Path-14" stroke="#27A862" stroke-linecap="round" stroke-linejoin="round" stroke-width="2" points="27 32 31 36 38 28"/></g></svg>