<svg xmlns="http://www.w3.org/2000/svg" xmlns:xlink="http://www.w3.org/1999/xlink" width="48" height="48" version="1.1" viewBox="0 0 48 48"><title>icon/hoste2ee copy</title><g id="icon/hoste2ee-copy" fill="none" fill-rule="evenodd" stroke="none" stroke-width="1"><rect id="Rectangle" width="48" height="48" x="0" y="0"/><rect id="Rectangle" width="22" height="20" x="13" y="23" stroke="#3077F1" stroke-width="2" rx="2"/><path id="Path-11" stroke="#3077F1" stroke-width="2" d="M16,23 L16,18 C16,12 18.6666667,9 24,9 C29.3333333,9 32,12 32,18 L32,23"/><circle id="Oval" cx="24" cy="30" r="2" stroke="#3077F1" stroke-width="2"/><line id="Line" x1="24" x2="24" y1="37" y2="33" stroke="#3077F1" stroke-linecap="round" stroke-linejoin="round" stroke-width="2"/><circle id="Oval-Copy-2" cx="7" cy="41" r="2" stroke="#3077F1" stroke-width="2"/><circle id="Oval-Copy-4" cx="7" cy="7" r="2" stroke="#3077F1" stroke-width="2"/><circle id="Oval-Copy-3" cx="41" cy="41" r="2" stroke="#3077F1" stroke-width="2"/><circle id="Oval-Copy-5" cx="41" cy="7" r="2" stroke="#3077F1" stroke-width="2"/><polyline id="Path-12" stroke="#3077F1" stroke-linecap="round" stroke-linejoin="round" stroke-width="2" points="7 10 7 18 16 18"/><polyline id="Path-12-Copy-2" stroke="#3077F1" stroke-linecap="round" stroke-linejoin="round" stroke-width="2" points="7 32 7 38 13 38" transform="translate(10.000000, 35.000000) scale(1, -1) translate(-10.000000, -35.000000)"/><polyline id="Path-12-Copy-3" stroke="#3077F1" stroke-linecap="round" stroke-linejoin="round" stroke-width="2" points="35 28 35 38 41 38" transform="translate(38.000000, 33.000000) scale(-1, -1) translate(-38.000000, -33.000000)"/><polyline id="Path-12-Copy" stroke="#3077F1" stroke-linecap="round" stroke-linejoin="round" stroke-width="2" points="32 10 32 14 41 14" transform="translate(36.500000, 12.000000) scale(-1, 1) translate(-36.500000, -12.000000)"/></g></svg>