<svg xmlns="http://www.w3.org/2000/svg" xmlns:xlink="http://www.w3.org/1999/xlink" width="48" height="48" version="1.1" viewBox="0 0 48 48"><title>icon/durability copy</title><g id="icon/durability-copy" fill="none" fill-rule="evenodd" stroke="none" stroke-width="1"><rect id="Rectangle" width="48" height="48" x="0" y="0"/><path id="Path-15" stroke="#3077F1" stroke-linejoin="round" stroke-width="2" d="M24,43 C19.8333333,41.5 16.1666667,39.1666667 13,36 C9.83333333,32.8333333 8.16666667,28.5 8,23 L8,11 L24,5 L40,11 L40,23 C39.8333333,28.5 38.1666667,32.8333333 35,36 C31.8333333,39.1666667 28.1666667,41.5 24,43 Z"/><circle id="Oval" cx="24" cy="23" r="10" stroke="#3077F1" stroke-width="2"/><line id="Line-2" x1="24" x2="24" y1="33" y2="42" stroke="#3077F1" stroke-linecap="square" stroke-width="2"/><line id="Line-2-Copy" x1="24" x2="24" y1="6" y2="13" stroke="#3077F1" stroke-linecap="square" stroke-width="2"/><polyline id="Path-4" stroke="#3077F1" stroke-linecap="round" stroke-linejoin="round" stroke-width="2" points="20 26 20 19 24 24 28 19 28 26"/></g></svg>