<svg xmlns="http://www.w3.org/2000/svg" xmlns:xlink="http://www.w3.org/1999/xlink" width="48" height="48" version="1.1" viewBox="0 0 48 48"><title>icon/scalable copy</title><g id="icon/scalable-copy" fill="none" fill-rule="evenodd" stroke="none" stroke-width="1"><rect id="Rectangle" width="48" height="48" x="0" y="0"/><polygon id="Path-2" stroke="#3077F1" stroke-linecap="round" stroke-linejoin="round" stroke-width="2" points="24 14 12 20 24 26 36 20"/><polyline id="Path-8" stroke="#3077F1" stroke-linecap="round" stroke-linejoin="round" stroke-width="2" points="12 20 12 33 24 39 36 33 36 20"/><line id="Path-9" x1="24" x2="24" y1="26" y2="38" stroke="#3077F1" stroke-linecap="round" stroke-linejoin="round" stroke-width="2"/><line id="Path-9-Copy" x1="24" x2="24" y1="8" y2="20" stroke="#3077F1" stroke-linecap="round" stroke-linejoin="round" stroke-width="2"/><path id="Path-9-Copy-3" stroke="#3077F1" stroke-linecap="round" stroke-linejoin="round" stroke-width="2" d="M18,30 C18,30 7,36 7,36 C7,36 18,30 18,30 Z"/><path id="Path-9-Copy-4" stroke="#3077F1" stroke-linecap="round" stroke-linejoin="round" stroke-width="2" d="M41,30 C41,30 37.3333333,32 30,36 C37.3333333,32 41,30 41,30 Z" transform="translate(35.500000, 33.000000) scale(-1, 1) translate(-35.500000, -33.000000)"/><polyline id="Path-9-Copy-2" stroke="#3077F1" stroke-linecap="round" stroke-linejoin="round" stroke-width="2" points="28 11 24 7 20 11"/><polyline id="Path-10" stroke="#3077F1" stroke-linecap="round" stroke-linejoin="round" stroke-width="2" points="7 31 6 37 12 38"/><polyline id="Path-10-Copy" stroke="#3077F1" stroke-linecap="round" stroke-linejoin="round" stroke-width="2" points="37 31 36 37 42 38" transform="translate(39.000000, 34.500000) scale(-1, 1) translate(-39.000000, -34.500000)"/></g></svg>